solid cube_with_tube.len_side-10.000_tube_diameter-4.000_segments-4
  facet normal -0.000000 0.000000 -1.000000
    outer loop
      vertex 10.000000 0.000000 0.000000
      vertex 2.000000 0.000000 0.000000
      vertex 10.000000 8.000000 0.000000
    endloop
  endfacet
  facet normal -0.000000 -0.000000 -1.000000
    outer loop
      vertex 0.000000 8.000000 0.000000
      vertex 5.000000 3.000000 0.000000
      vertex 2.000000 0.000000 0.000000
    endloop
  endfacet
  facet normal -0.000000 -0.000000 -1.000000
    outer loop
      vertex 2.000000 0.000000 0.000000
      vertex 0.000000 0.000000 0.000000
      vertex 0.000000 8.000000 0.000000
    endloop
  endfacet
  facet normal -0.000000 -0.000000 -1.000000
    outer loop
      vertex 8.000000 10.000000 0.000000
      vertex 3.000000 5.000000 0.000000
      vertex 0.000000 8.000000 0.000000
    endloop
  endfacet
  facet normal -0.000000 -0.000000 -1.000000
    outer loop
      vertex 0.000000 8.000000 0.000000
      vertex 0.000000 10.000000 0.000000
      vertex 8.000000 10.000000 0.000000
    endloop
  endfacet
  facet normal -0.000000 0.000000 -1.000000
    outer loop
      vertex 10.000000 8.000000 0.000000
      vertex 7.000000 5.000000 0.000000
      vertex 5.000000 7.000000 0.000000
    endloop
  endfacet
  facet normal -0.000000 0.000000 -1.000000
    outer loop
      vertex 5.000000 7.000000 0.000000
      vertex 8.000000 10.000000 0.000000
      vertex 10.000000 10.000000 0.000000
    endloop
  endfacet
  facet normal -0.000000 0.000000 -1.000000
    outer loop
      vertex 10.000000 10.000000 0.000000
      vertex 10.000000 8.000000 0.000000
      vertex 5.000000 7.000000 0.000000
    endloop
  endfacet
  facet normal -0.000000 0.000000 1.000000
    outer loop
      vertex 10.000000 8.000000 10.000000
      vertex 2.000000 0.000000 10.000000
      vertex 10.000000 0.000000 10.000000
    endloop
  endfacet
  facet normal -0.000000 -0.000000 1.000000
    outer loop
      vertex 5.000000 3.000000 10.000000
      vertex 0.000000 8.000000 10.000000
      vertex 0.000000 0.000000 10.000000
    endloop
  endfacet
  facet normal -0.000000 -0.000000 1.000000
    outer loop
      vertex 0.000000 0.000000 10.000000
      vertex 2.000000 0.000000 10.000000
      vertex 5.000000 3.000000 10.000000
    endloop
  endfacet
  facet normal -0.000000 -0.000000 1.000000
    outer loop
      vertex 0.000000 10.000000 10.000000
      vertex 0.000000 8.000000 10.000000
      vertex 3.000000 5.000000 10.000000
    endloop
  endfacet
  facet normal -0.000000 -0.000000 1.000000
    outer loop
      vertex 3.000000 5.000000 10.000000
      vertex 8.000000 10.000000 10.000000
      vertex 0.000000 10.000000 10.000000
    endloop
  endfacet
  facet normal -0.000000 -0.000000 1.000000
    outer loop
      vertex 8.000000 10.000000 10.000000
      vertex 5.000000 7.000000 10.000000
      vertex 7.000000 5.000000 10.000000
    endloop
  endfacet
  facet normal -0.000000 -0.000000 1.000000
    outer loop
      vertex 7.000000 5.000000 10.000000
      vertex 10.000000 8.000000 10.000000
      vertex 10.000000 10.000000 10.000000
    endloop
  endfacet
  facet normal -0.000000 -0.000000 1.000000
    outer loop
      vertex 10.000000 10.000000 10.000000
      vertex 8.000000 10.000000 10.000000
      vertex 7.000000 5.000000 10.000000
    endloop
  endfacet
  facet normal 0.000000 -1.000000 -0.000000
    outer loop
      vertex 2.000000 0.000000 10.000000
      vertex 2.000000 0.000000 0.000000
      vertex 10.000000 0.000000 0.000000
    endloop
  endfacet
  facet normal 0.000000 -1.000000 -0.000000
    outer loop
      vertex 10.000000 0.000000 0.000000
      vertex 10.000000 0.000000 10.000000
      vertex 2.000000 0.000000 10.000000
    endloop
  endfacet
  facet normal 0.000000 -1.000000 -0.000000
    outer loop
      vertex 0.000000 0.000000 10.000000
      vertex 0.000000 0.000000 0.000000
      vertex 2.000000 0.000000 0.000000
    endloop
  endfacet
  facet normal 0.000000 -1.000000 -0.000000
    outer loop
      vertex 2.000000 0.000000 0.000000
      vertex 2.000000 0.000000 10.000000
      vertex 0.000000 0.000000 10.000000
    endloop
  endfacet
  facet normal 0.000000 1.000000 -0.000000
    outer loop
      vertex 8.000000 10.000000 10.000000
      vertex 8.000000 10.000000 0.000000
      vertex 0.000000 10.000000 0.000000
    endloop
  endfacet
  facet normal 0.000000 1.000000 -0.000000
    outer loop
      vertex 0.000000 10.000000 0.000000
      vertex 0.000000 10.000000 10.000000
      vertex 8.000000 10.000000 10.000000
    endloop
  endfacet
  facet normal -0.000000 1.000000 -0.000000
    outer loop
      vertex 10.000000 10.000000 0.000000
      vertex 8.000000 10.000000 0.000000
      vertex 8.000000 10.000000 10.000000
    endloop
  endfacet
  facet normal -0.000000 1.000000 -0.000000
    outer loop
      vertex 8.000000 10.000000 10.000000
      vertex 10.000000 10.000000 10.000000
      vertex 10.000000 10.000000 0.000000
    endloop
  endfacet
  facet normal -1.000000 -0.000000 -0.000000
    outer loop
      vertex 0.000000 8.000000 10.000000
      vertex 0.000000 8.000000 0.000000
      vertex 0.000000 0.000000 0.000000
    endloop
  endfacet
  facet normal -1.000000 -0.000000 -0.000000
    outer loop
      vertex 0.000000 0.000000 0.000000
      vertex 0.000000 0.000000 10.000000
      vertex 0.000000 8.000000 10.000000
    endloop
  endfacet
  facet normal -1.000000 -0.000000 0.000000
    outer loop
      vertex 0.000000 10.000000 0.000000
      vertex 0.000000 8.000000 0.000000
      vertex 0.000000 8.000000 10.000000
    endloop
  endfacet
  facet normal -1.000000 -0.000000 0.000000
    outer loop
      vertex 0.000000 8.000000 10.000000
      vertex 0.000000 10.000000 10.000000
      vertex 0.000000 10.000000 0.000000
    endloop
  endfacet
  facet normal 1.000000 -0.000000 -0.000000
    outer loop
      vertex 10.000000 0.000000 10.000000
      vertex 10.000000 0.000000 0.000000
      vertex 10.000000 8.000000 0.000000
    endloop
  endfacet
  facet normal 1.000000 -0.000000 -0.000000
    outer loop
      vertex 10.000000 8.000000 0.000000
      vertex 10.000000 8.000000 10.000000
      vertex 10.000000 0.000000 10.000000
    endloop
  endfacet
  facet normal 1.000000 -0.000000 -0.000000
    outer loop
      vertex 10.000000 8.000000 10.000000
      vertex 10.000000 8.000000 0.000000
      vertex 10.000000 10.000000 0.000000
    endloop
  endfacet
  facet normal 1.000000 -0.000000 -0.000000
    outer loop
      vertex 10.000000 10.000000 0.000000
      vertex 10.000000 10.000000 10.000000
      vertex 10.000000 8.000000 10.000000
    endloop
  endfacet
  facet normal -0.707107 0.707107 -0.000000
    outer loop
      vertex 5.000000 3.000000 0.000000
      vertex 5.000000 3.000000 10.000000
      vertex 7.000000 5.000000 10.000000
    endloop
  endfacet
  facet normal -0.707107 0.707107 -0.000000
    outer loop
      vertex 7.000000 5.000000 10.000000
      vertex 7.000000 5.000000 0.000000
      vertex 5.000000 3.000000 0.000000
    endloop
  endfacet
  facet normal 0.707107 0.707107 -0.000000
    outer loop
      vertex 3.000000 5.000000 0.000000
      vertex 3.000000 5.000000 10.000000
      vertex 5.000000 3.000000 10.000000
    endloop
  endfacet
  facet normal 0.707107 0.707107 -0.000000
    outer loop
      vertex 5.000000 3.000000 10.000000
      vertex 5.000000 3.000000 0.000000
      vertex 3.000000 5.000000 0.000000
    endloop
  endfacet
  facet normal 0.707107 -0.707107 -0.000000
    outer loop
      vertex 5.000000 7.000000 0.000000
      vertex 5.000000 7.000000 10.000000
      vertex 3.000000 5.000000 10.000000
    endloop
  endfacet
  facet normal 0.707107 -0.707107 -0.000000
    outer loop
      vertex 3.000000 5.000000 10.000000
      vertex 3.000000 5.000000 0.000000
      vertex 5.000000 7.000000 0.000000
    endloop
  endfacet
  facet normal -0.707107 -0.707107 -0.000000
    outer loop
      vertex 7.000000 5.000000 0.000000
      vertex 7.000000 5.000000 10.000000
      vertex 5.000000 7.000000 10.000000
    endloop
  endfacet
  facet normal -0.707107 -0.707107 -0.000000
    outer loop
      vertex 5.000000 7.000000 10.000000
      vertex 5.000000 7.000000 0.000000
      vertex 7.000000 5.000000 0.000000
    endloop
  endfacet
endsolid cube_with_tube.len_side-10.000_tube_diameter-4.000_segments-4
